<svg width="44" height="62" viewBox="0 0 44 62" fill="none" xmlns="http://www.w3.org/2000/svg">
<rect x="8.5" y="8.5" width="29" height="29" stroke="black" stroke-width="3"/>
<rect x="1.5" y="1.5" width="29" height="29" fill="black" stroke="black" stroke-width="3"/>
<mask id="mask0_0_1" style="mask-type:alpha" maskUnits="userSpaceOnUse" x="10" y="10" width="34" height="33">
<path fill-rule="evenodd" clip-rule="evenodd" d="M10 39V43H44V10H38.8485V39H10Z" fill="#C4C4C4"/>
</mask>
<g mask="url(#mask0_0_1)">
<line y1="-0.5" x2="62.8568" y2="-0.5" transform="matrix(-0.694818 0.719185 -0.924729 -0.380627 42.674 -23)" stroke="black"/>
<line y1="-0.5" x2="62.8568" y2="-0.5" transform="matrix(-0.694818 0.719185 -0.924729 -0.380627 43.761 -17.7999)" stroke="black"/>
<line y1="-0.5" x2="62.8568" y2="-0.5" transform="matrix(-0.694818 0.719185 -0.924729 -0.380627 44.8481 -12.5999)" stroke="black"/>
<line y1="-0.5" x2="62.8568" y2="-0.5" transform="matrix(-0.694818 0.719185 -0.924729 -0.380627 45.9352 -7.39972)" stroke="black"/>
<line y1="-0.5" x2="62.8568" y2="-0.5" transform="matrix(-0.694818 0.719185 -0.924729 -0.380627 47.0222 -2.19965)" stroke="black"/>
<line y1="-0.5" x2="62.8568" y2="-0.5" transform="matrix(-0.694818 0.719185 -0.924729 -0.380627 48.1093 3.00049)" stroke="black"/>
<line y1="-0.5" x2="62.8568" y2="-0.5" transform="matrix(-0.694818 0.719185 -0.924729 -0.380627 49.1964 8.20056)" stroke="black"/>
<line y1="-0.5" x2="62.8568" y2="-0.5" transform="matrix(-0.694818 0.719185 -0.924729 -0.380627 50.2834 13.4006)" stroke="black"/>
<line y1="-0.5" x2="62.8568" y2="-0.5" transform="matrix(-0.694818 0.719185 -0.924729 -0.380627 51.3705 18.6007)" stroke="black"/>
<line y1="-0.5" x2="62.8568" y2="-0.5" transform="matrix(-0.694818 0.719185 -0.924729 -0.380627 52.4575 23.8008)" stroke="black"/>
<line y1="-0.5" x2="62.8568" y2="-0.5" transform="matrix(-0.694818 0.719185 -0.924729 -0.380627 53.5446 29.0009)" stroke="black"/>
<line y1="-0.5" x2="62.8568" y2="-0.5" transform="matrix(-0.694818 0.719185 -0.924729 -0.380627 54.6316 34.201)" stroke="black"/>
</g>
<path d="M9.968 49.928C10.0107 49.8427 10.0853 49.8 10.192 49.8H12.448C12.5013 49.8 12.544 49.8213 12.576 49.864C12.6187 49.896 12.64 49.9387 12.64 49.992V60.808C12.64 60.8613 12.6187 60.9093 12.576 60.952C12.544 60.984 12.5013 61 12.448 61H10.176C10.1227 61 10.0747 60.984 10.032 60.952C10 60.9093 9.984 60.8613 9.984 60.808V54.376C9.984 54.3333 9.97333 54.312 9.952 54.312C9.93067 54.312 9.90933 54.328 9.888 54.36L8.512 56.568C8.46933 56.6533 8.39467 56.696 8.288 56.696H7.152C7.04533 56.696 6.97067 56.6533 6.928 56.568L5.536 54.344C5.51467 54.312 5.49333 54.296 5.472 54.296C5.45067 54.296 5.44 54.3173 5.44 54.36V60.808C5.44 60.8613 5.41867 60.9093 5.376 60.952C5.344 60.984 5.30133 61 5.248 61H2.976C2.92267 61 2.87467 60.984 2.832 60.952C2.8 60.9093 2.784 60.8613 2.784 60.808V49.992C2.784 49.9387 2.8 49.896 2.832 49.864C2.87467 49.8213 2.92267 49.8 2.976 49.8H5.232C5.328 49.8 5.40267 49.8427 5.456 49.928L7.68 53.416C7.712 53.48 7.744 53.48 7.776 53.416L9.968 49.928ZM18.3819 61.176C17.5179 61.176 16.7552 61.0053 16.0939 60.664C15.4432 60.312 14.9365 59.8213 14.5739 59.192C14.2112 58.5627 14.0299 57.832 14.0299 57V53.8C14.0299 52.9893 14.2112 52.2747 14.5739 51.656C14.9365 51.0267 15.4432 50.5413 16.0939 50.2C16.7552 49.848 17.5179 49.672 18.3819 49.672C19.2459 49.672 20.0085 49.848 20.6699 50.2C21.3312 50.5413 21.8432 51.0267 22.2059 51.656C22.5685 52.2747 22.7499 52.9893 22.7499 53.8V57C22.7499 57.832 22.5685 58.5627 22.2059 59.192C21.8432 59.8213 21.3312 60.312 20.6699 60.664C20.0085 61.0053 19.2459 61.176 18.3819 61.176ZM18.3819 58.904C18.8939 58.904 19.3045 58.7387 19.6139 58.408C19.9339 58.0773 20.0939 57.6347 20.0939 57.08V53.768C20.0939 53.224 19.9339 52.7867 19.6139 52.456C19.3045 52.1147 18.8939 51.944 18.3819 51.944C17.8805 51.944 17.4699 52.1147 17.1499 52.456C16.8405 52.7867 16.6859 53.224 16.6859 53.768V57.08C16.6859 57.6347 16.8405 58.0773 17.1499 58.408C17.4699 58.7387 17.8805 58.904 18.3819 58.904ZM30.4954 49.992C30.4954 49.9387 30.5114 49.896 30.5434 49.864C30.586 49.8213 30.634 49.8 30.6874 49.8H32.9594C33.0127 49.8 33.0554 49.8213 33.0874 49.864C33.13 49.896 33.1514 49.9387 33.1514 49.992V60.808C33.1514 60.8613 33.13 60.9093 33.0874 60.952C33.0554 60.984 33.0127 61 32.9594 61H30.7834C30.6767 61 30.602 60.9573 30.5594 60.872L26.8794 54.76C26.858 54.728 26.8367 54.7173 26.8154 54.728C26.794 54.728 26.7834 54.7493 26.7834 54.792L26.7994 60.808C26.7994 60.8613 26.778 60.9093 26.7354 60.952C26.7034 60.984 26.6607 61 26.6074 61H24.3354C24.282 61 24.234 60.984 24.1914 60.952C24.1594 60.9093 24.1434 60.8613 24.1434 60.808V49.992C24.1434 49.9387 24.1594 49.896 24.1914 49.864C24.234 49.8213 24.282 49.8 24.3354 49.8H26.5274C26.634 49.8 26.7087 49.8427 26.7514 49.928L30.4154 56.024C30.4367 56.056 30.458 56.072 30.4794 56.072C30.5007 56.0613 30.5114 56.0347 30.5114 55.992L30.4954 49.992ZM38.9131 61.176C38.0491 61.176 37.2865 61.0053 36.6251 60.664C35.9745 60.312 35.4678 59.8213 35.1051 59.192C34.7425 58.5627 34.5611 57.832 34.5611 57V53.8C34.5611 52.9893 34.7425 52.2747 35.1051 51.656C35.4678 51.0267 35.9745 50.5413 36.6251 50.2C37.2865 49.848 38.0491 49.672 38.9131 49.672C39.7771 49.672 40.5398 49.848 41.2011 50.2C41.8625 50.5413 42.3745 51.0267 42.7371 51.656C43.0998 52.2747 43.2811 52.9893 43.2811 53.8V57C43.2811 57.832 43.0998 58.5627 42.7371 59.192C42.3745 59.8213 41.8625 60.312 41.2011 60.664C40.5398 61.0053 39.7771 61.176 38.9131 61.176ZM38.9131 58.904C39.4251 58.904 39.8358 58.7387 40.1451 58.408C40.4651 58.0773 40.6251 57.6347 40.6251 57.08V53.768C40.6251 53.224 40.4651 52.7867 40.1451 52.456C39.8358 52.1147 39.4251 51.944 38.9131 51.944C38.4118 51.944 38.0011 52.1147 37.6811 52.456C37.3718 52.7867 37.2171 53.224 37.2171 53.768V57.08C37.2171 57.6347 37.3718 58.0773 37.6811 58.408C38.0011 58.7387 38.4118 58.904 38.9131 58.904Z" fill="black"/>
</svg>
